<svg width="134" height="98" viewBox="0 0 134 98" fill="none" xmlns="http://www.w3.org/2000/svg">
<path d="M134 71.2727C134 78.6506 131.383 84.9496 126.148 90.1697C120.914 95.3899 114.598 98 107.2 98H31.2666C22.659 98 15.296 94.9491 9.17758 88.8473C3.05919 82.7455 0 75.4024 0 66.8182C0 60.6932 1.65174 55.0902 4.95523 50.0092C8.25867 44.9283 12.609 41.1349 18.0063 38.6293C17.9132 37.33 17.8666 36.3323 17.8666 35.6363C17.8666 25.7992 21.3562 17.4006 28.3354 10.4403C35.3146 3.48011 43.7361 0 53.6 0C60.9514 0 67.6165 2.04166 73.5953 6.12498C79.5741 10.2083 83.9361 15.5445 86.6813 22.1335C89.9382 19.2566 93.8 17.8182 98.2666 17.8182C103.199 17.8182 107.409 19.5582 110.899 23.0383C114.389 26.5184 116.133 30.7178 116.133 35.6363C116.133 39.1164 115.18 42.3181 113.272 45.2414C119.274 46.6335 124.229 49.754 128.137 54.603C132.046 59.4519 134 65.0085 134 71.2727Z" fill="url(#paint0_linear_1_602)"/>
<defs>
<linearGradient id="paint0_linear_1_602" x1="67" y1="0" x2="67" y2="98" gradientUnits="userSpaceOnUse">
<stop stop-color="#CED9F7"/>
<stop offset="1" stop-color="#5F7CA9"/>
</linearGradient>
</defs>
</svg>