<svg width="32" height="32" viewBox="0 0 32 32" fill="none" xmlns="http://www.w3.org/2000/svg">
<path d="M27.1304 8.1739H4.86957C3.6174 8.1739 2.6087 7.1652 2.6087 5.91303C2.6087 4.66086 3.6174 3.65216 4.86957 3.65216H27.1304C28.3826 3.65216 29.3913 4.66086 29.3913 5.91303C29.3913 7.1652 28.3826 8.1739 27.1304 8.1739ZM29.3913 16C29.3913 14.7478 28.3826 13.7391 27.1304 13.7391H4.86957C3.6174 13.7391 2.6087 14.7478 2.6087 16C2.6087 17.2522 3.6174 18.2609 4.86957 18.2609H27.1304C28.3826 18.2609 29.3913 17.2522 29.3913 16ZM29.3913 26.0869C29.3913 24.8348 28.3826 23.8261 27.1304 23.8261H4.86957C3.6174 23.8261 2.6087 24.8348 2.6087 26.0869C2.6087 27.3391 3.6174 28.3478 4.86957 28.3478H27.1304C28.3826 28.3478 29.3913 27.3391 29.3913 26.0869Z" fill="#31065D"/>
</svg>