<svg width="309" height="281" viewBox="0 0 309 281" fill="none" xmlns="http://www.w3.org/2000/svg">
<path d="M292.132 36.8538L262.939 67.7775C260.346 70.4472 258.486 73.7408 257.539 77.3398C256.592 80.9387 256.59 84.7212 257.533 88.3213L267.264 129.625C268.015 132.38 268.213 135.256 267.846 138.088C267.48 140.919 266.556 143.65 265.129 146.123C263.701 148.596 261.798 150.762 259.53 152.496C257.261 154.229 254.671 155.496 251.91 156.224L211.255 168.334C207.635 169.326 204.336 171.244 201.682 173.898C199.028 176.552 197.11 179.851 196.118 183.471L184.007 224.126C183.28 226.887 182.013 229.477 180.279 231.746C178.546 234.015 176.38 235.918 173.907 237.345C171.434 238.772 168.703 239.696 165.871 240.063C163.04 240.429 160.164 240.231 157.409 239.48L116.105 229.749C112.505 228.806 108.722 228.808 105.124 229.755C101.525 230.703 98.231 232.562 95.5613 235.155L64.6375 264.349C62.6272 266.376 60.2354 267.984 57.6002 269.082C54.965 270.18 52.1385 270.745 49.2838 270.745C46.429 270.745 43.6025 270.18 40.9673 269.082C38.3321 267.984 35.9403 266.376 33.93 264.349L3.2225 234.939C0.552788 232.346 -2.74084 230.486 -6.33978 229.539C-9.93871 228.592 -13.7212 228.59 -17.3213 229.533L-58.625 239.264C-61.3798 240.015 -64.256 240.213 -67.0877 239.846C-69.9194 239.48 -72.6505 238.556 -75.1234 237.129C-77.5963 235.701 -79.762 233.798 -81.4956 231.53C-83.2291 229.261 -84.4962 226.671 -85.2238 223.91L-97.3337 183.255C-98.3262 179.635 -100.244 176.336 -102.898 173.682C-105.552 171.028 -108.851 169.11 -112.471 168.118L-153.126 156.007C-158.615 154.489 -163.283 150.867 -166.117 145.927C-168.951 140.988 -169.723 135.13 -168.264 129.625L-158.532 88.3213C-157.59 84.7212 -157.592 80.9387 -158.539 77.3398C-159.486 73.7408 -161.346 70.4472 -163.939 67.7775L-193.132 36.8538C-195.159 34.8434 -196.768 32.4517 -197.866 29.8165C-198.964 27.1813 -199.529 24.3548 -199.529 21.5C-199.529 18.6452 -198.964 15.8187 -197.866 13.1835C-196.768 10.5483 -195.159 8.15657 -193.132 6.14626L-163.939 -24.7775C-161.346 -27.4472 -159.486 -30.7408 -158.539 -34.3398C-157.592 -37.9387 -157.59 -41.7212 -158.532 -45.3213L-168.264 -86.625C-169.015 -89.3798 -169.213 -92.256 -168.846 -95.0877C-168.48 -97.9194 -167.556 -100.65 -166.129 -103.123C-164.701 -105.596 -162.798 -107.762 -160.53 -109.496C-158.261 -111.229 -155.671 -112.496 -152.91 -113.224L-112.255 -125.334C-108.635 -126.326 -105.336 -128.244 -102.682 -130.898C-100.028 -133.552 -98.11 -136.851 -97.1175 -140.471L-85.0075 -181.126C-83.4891 -186.615 -79.8669 -191.283 -74.9274 -194.117C-69.9879 -196.951 -64.1298 -197.723 -58.625 -196.264L-17.3213 -186.533C-13.7212 -185.59 -9.93871 -185.592 -6.33978 -186.539C-2.74084 -187.486 0.552788 -189.346 3.2225 -191.939L34.1463 -221.133C36.1566 -223.159 38.5483 -224.768 41.1835 -225.866C43.8187 -226.964 46.6453 -227.529 49.5 -227.529C52.3548 -227.529 55.1813 -226.964 57.8165 -225.866C60.4517 -224.768 62.8434 -223.159 64.8538 -221.133L95.7775 -191.939C98.4472 -189.346 101.741 -187.486 105.34 -186.539C108.939 -185.592 112.721 -185.59 116.321 -186.533L157.625 -196.264C160.38 -197.015 163.256 -197.213 166.088 -196.846C168.919 -196.48 171.65 -195.556 174.123 -194.129C176.596 -192.701 178.762 -190.798 180.496 -188.53C182.229 -186.261 183.496 -183.671 184.224 -180.91L196.334 -140.255C197.326 -136.635 199.244 -133.336 201.898 -130.682C204.552 -128.028 207.851 -126.11 211.471 -125.118L252.126 -113.008C257.615 -111.489 262.283 -107.867 265.117 -102.927C267.951 -97.9879 268.723 -92.1298 267.264 -86.625L257.533 -45.3213C256.59 -41.7212 256.592 -37.9387 257.539 -34.3398C258.486 -30.7408 260.346 -27.4472 262.939 -24.7775L292.132 6.14626C294.159 8.15657 295.768 10.5483 296.866 13.1835C297.964 15.8187 298.529 18.6452 298.529 21.5C298.529 24.3548 297.964 27.1813 296.866 29.8165C295.768 32.4517 294.159 34.8434 292.132 36.8538Z" fill="#EEB300"/>
<path d="M49.5 183.688C139.074 183.688 211.688 111.074 211.688 21.5C211.688 -68.0737 139.074 -140.688 49.5 -140.688C-40.0737 -140.688 -112.688 -68.0737 -112.688 21.5C-112.688 111.074 -40.0737 183.688 49.5 183.688Z" fill="#FDD331"/>
</svg>
