<svg width="367" height="327" viewBox="0 0 367 327" fill="none" xmlns="http://www.w3.org/2000/svg">
<path d="M348.429 0H13.3486V316.846H348.429V0Z" fill="#B5E1E3"/>
<path d="M352.269 0H348.429V316.846H352.269V0Z" fill="#F4F4F4"/>
<path opacity="0.05" d="M352.269 0H348.429V316.846H352.269V0Z" fill="black"/>
<path opacity="0.05" d="M267.253 218.333V135.436H195.44V183.597H84.202V268.873H36.9238V316.846H84.202H93.3103H332.31V218.333H267.253Z" fill="black"/>
<path opacity="0.34" d="M256.954 144.436H204.659V153.437H256.954V144.436Z" fill="#FFFFFA"/>
<path opacity="0.34" d="M256.954 163.088H204.659V172.088H256.954V163.088Z" fill="#FFFFFA"/>
<path opacity="0.34" d="M256.954 181.739H204.659V190.74H256.954V181.739Z" fill="#FFFFFA"/>
<path opacity="0.34" d="M323.037 227.069H313.398V236.07H323.037V227.069Z" fill="#FFFFFA"/>
<path opacity="0.34" d="M323.037 245.721H313.398V254.722H323.037V245.721Z" fill="#FFFFFA"/>
<path opacity="0.34" d="M323.037 264.372H313.398V273.372H323.037V264.372Z" fill="#FFFFFA"/>
<path opacity="0.34" d="M305.206 227.069H295.567V236.07H305.206V227.069Z" fill="#FFFFFA"/>
<path opacity="0.34" d="M305.206 245.721H295.567V254.722H305.206V245.721Z" fill="#FFFFFA"/>
<path opacity="0.34" d="M305.206 264.372H295.567V273.372H305.206V264.372Z" fill="#FFFFFA"/>
<path opacity="0.34" d="M287.855 227.069H278.217V236.07H287.855V227.069Z" fill="#FFFFFA"/>
<path opacity="0.34" d="M287.855 245.721H278.217V254.722H287.855V245.721Z" fill="#FFFFFA"/>
<path opacity="0.34" d="M287.855 264.372H278.217V273.372H287.855V264.372Z" fill="#FFFFFA"/>
<path d="M361.777 316.463H0V327H361.777V316.463Z" fill="#F4F4F4"/>
<path opacity="0.1" d="M361.777 316.463H0V327H361.777V316.463Z" fill="black"/>
<path opacity="0.1" d="M367 316.463H361.777V327H367V316.463Z" fill="black"/>
<path opacity="0.1" d="M367 316.463H361.777V327H367V316.463Z" fill="black"/>
<path d="M348.429 156.645H281.005V0H275.429V156.645H93.311V0H87.7348V156.645H13.3486V161.918H87.7348V316.846H93.311V161.918H275.429V316.846H281.005V161.918H348.429V156.645Z" fill="white"/>
</svg>
